<?xml version="1.0" standalone="no"?>
<!DOCTYPE svg PUBLIC "-//W3C//DTD SVG 20010904//EN"
 "http://www.w3.org/TR/2001/REC-SVG-20010904/DTD/svg10.dtd">
<svg version="1.0" xmlns="http://www.w3.org/2000/svg"
 width="849.000000pt" height="854.000000pt" viewBox="0 0 849.000000 854.000000"
 preserveAspectRatio="xMidYMid meet">
<metadata>
Created by potrace 1.16, written by Peter Selinger 2001-2019
</metadata>
<g transform="translate(0.000000,854.000000) scale(0.100000,-0.100000)"
fill="#000000" stroke="none">
<path d="M0 8510 c0 -16 4 -30 10 -30 5 0 24 -21 42 -47 18 -27 46 -62 63 -79
16 -16 39 -43 50 -59 49 -69 162 -155 205 -155 18 0 50 -53 50 -84 0 -25 43
-91 96 -146 18 -19 40 -53 49 -74 16 -37 73 -117 130 -180 26 -28 27 -28 110
-21 81 6 85 6 109 -18 13 -14 30 -44 36 -68 33 -129 51 -167 101 -216 28 -26
57 -60 65 -75 8 -16 22 -28 32 -28 28 0 112 -92 122 -134 12 -54 -6 -110 -51
-155 -46 -46 -48 -65 -11 -117 26 -38 27 -44 29 -178 1 -76 4 -141 7 -143 2
-2 26 -9 52 -16 82 -20 84 -29 85 -372 1 -421 10 -575 39 -655 13 -36 24 -66
26 -68 1 -2 18 8 39 22 20 14 53 28 71 32 87 16 190 -31 224 -102 24 -49 25
-85 4 -150 -8 -27 -21 -75 -29 -107 -12 -53 -11 -58 6 -67 40 -22 48 -13 47
48 -2 68 14 119 59 187 46 71 73 87 153 93 66 4 118 -10 172 -50 18 -13 30 -9
133 50 l50 28 3 70 c3 65 1 71 -21 83 -20 11 -29 10 -55 -3 -56 -29 -107 -31
-147 -6 -81 50 -131 168 -106 250 28 94 112 146 218 135 49 -5 68 -3 95 11 24
13 56 18 118 19 75 0 90 -3 130 -27 51 -31 107 -82 131 -119 39 -58 29 -179
-20 -260 -14 -23 -21 -51 -21 -86 0 -39 -8 -67 -33 -115 l-33 -63 22 -32 c37
-56 39 -130 5 -217 -9 -22 -9 -38 0 -64 30 -90 -9 -227 -91 -326 -22 -26 -40
-52 -40 -57 0 -29 161 6 232 50 25 16 57 32 70 37 12 4 48 19 78 34 30 15 65
31 78 35 12 3 48 29 79 56 31 27 62 49 70 49 23 0 114 50 120 66 3 8 -2 34
-11 56 -19 49 -14 62 8 20 23 -45 56 -176 56 -224 0 -60 -52 -236 -78 -265
-25 -28 -52 -27 -67 2 -5 11 -23 32 -38 48 -33 32 -66 101 -67 137 0 23 12 31
110 75 99 45 110 53 110 76 0 32 -19 42 -45 23 -10 -8 -25 -14 -33 -14 -36 0
-105 -46 -127 -85 -30 -50 -100 -119 -113 -111 -5 3 -12 -1 -16 -9 -7 -19 -26
-19 -26 0 0 29 -33 15 -79 -35 -44 -47 -50 -50 -97 -50 -113 0 -284 -49 -284
-82 0 -7 -27 -21 -63 -31 -61 -18 -207 -76 -217 -88 -3 -3 -39 -16 -80 -28
-41 -13 -124 -43 -184 -67 -59 -24 -113 -44 -118 -44 -5 0 -32 -10 -59 -21
-42 -19 -60 -36 -120 -118 -84 -115 -130 -205 -165 -326 -23 -79 -27 -117 -34
-320 -5 -126 -6 -267 -3 -313 4 -59 2 -90 -7 -108 -12 -21 -11 -32 3 -72 23
-63 22 -74 -13 -128 -27 -44 -30 -54 -28 -128 1 -64 -3 -91 -20 -130 -28 -61
-27 -72 3 -138 43 -91 29 -151 -27 -122 -41 21 -84 15 -80 -11 2 -18 1 -18
-10 -4 -7 9 -29 20 -48 24 -19 4 -38 13 -42 19 -8 12 -119 27 -213 29 -71 1
-187 -20 -196 -35 -5 -8 -19 -6 -46 5 -40 16 -51 15 -168 -9 -129 -26 -290
-21 -325 11 -10 9 -26 16 -36 15 -57 -2 -131 1 -146 6 -17 5 -18 -12 -18 -260
l0 -266 23 9 c23 9 82 18 177 26 71 7 138 20 281 56 63 16 135 29 160 29 24 0
69 7 99 16 85 24 133 35 155 36 57 1 196 33 237 54 69 35 99 101 58 126 -11 7
-20 20 -20 30 0 9 -5 20 -12 24 -20 12 84 33 147 29 69 -4 72 -9 74 -110 1
-33 13 -125 27 -205 14 -80 29 -165 34 -190 41 -235 59 -318 71 -335 12 -17
31 -125 25 -141 -3 -9 -11 -12 -17 -9 -5 4 -8 10 -5 13 9 9 -15 32 -34 32 -9
0 -22 11 -28 25 -9 19 -9 25 1 25 8 0 8 3 -2 9 -8 5 -12 18 -8 30 6 25 -10 35
-67 44 -43 7 -76 -6 -76 -28 0 -8 -4 -15 -10 -15 -5 0 -10 -6 -10 -14 0 -9 16
-17 43 -21 57 -10 76 -28 75 -76 0 -22 -4 -42 -9 -45 -18 -10 -9 -22 21 -26
16 -3 33 -1 37 3 16 14 92 17 103 4 10 -12 57 -191 82 -314 10 -51 10 -65 0
-69 -14 -4 -16 -48 -3 -56 5 -4 11 0 14 6 2 7 9 -7 14 -32 11 -51 7 -71 -12
-64 -7 3 -16 1 -19 -5 -4 -6 -12 -8 -19 -6 -7 3 -18 1 -26 -4 -27 -17 6 -41
55 -41 39 0 46 -3 55 -27 5 -15 8 -37 5 -49 -4 -13 -2 -26 4 -29 5 -3 10 -11
10 -16 0 -6 -7 -3 -16 5 -10 10 -33 16 -63 16 -34 0 -55 6 -71 20 -29 25 -66
25 -106 1 -53 -32 -204 -44 -259 -21 -47 20 -55 22 -144 26 -86 4 -121 -6
-121 -32 0 -23 -25 -27 -98 -14 -95 17 -96 18 -84 33 17 21 107 40 152 32 27
-5 40 -3 40 4 0 27 69 37 297 44 50 1 95 5 98 9 4 4 4 16 0 28 -6 19 -14 21
-73 20 -37 -1 -86 1 -108 5 -31 5 -48 3 -67 -9 -36 -24 -224 -13 -283 16 -33
16 -46 18 -62 9 -11 -6 -38 -11 -60 -11 -56 0 -145 -18 -153 -31 -7 -12 -81
-4 -108 11 -15 8 -41 -10 -41 -29 0 -15 -35 -31 -67 -31 -15 0 -56 -3 -89 -6
-41 -4 -75 -2 -100 7 -22 7 -43 12 -48 11 -5 -2 -12 1 -15 7 -3 5 -19 13 -34
16 l-27 7 0 -321 0 -321 2883 3 c2169 3 2898 6 2946 15 35 7 103 26 151 42 56
19 107 30 143 30 55 0 55 -1 84 -45 l28 -45 60 0 c58 0 59 1 39 18 -12 9 -27
27 -33 39 -6 12 -25 24 -42 28 -19 4 -33 15 -36 26 -3 10 -9 19 -14 19 -4 0
-24 13 -42 30 -19 16 -52 33 -72 38 -44 9 -55 26 -26 41 13 7 36 8 72 1 28 -6
58 -10 65 -10 16 0 203 149 266 213 26 26 50 58 52 70 2 12 9 55 15 95 28 181
97 308 290 532 106 123 130 167 147 273 17 101 13 181 -11 207 -8 9 -15 20
-15 24 0 3 -15 29 -34 56 -27 39 -36 65 -42 117 -17 148 1 377 37 457 10 24
66 91 133 160 102 104 120 119 156 123 23 3 46 1 54 -6 7 -6 35 -60 61 -119
25 -59 50 -116 55 -127 18 -40 42 -101 60 -150 10 -27 35 -88 54 -135 20 -46
36 -91 36 -100 0 -9 4 -20 8 -25 5 -6 15 -30 22 -55 7 -25 21 -61 30 -80 26
-54 60 -139 81 -203 10 -32 26 -68 34 -80 8 -12 15 -27 15 -34 0 -7 11 -36 24
-65 61 -131 123 -320 133 -405 6 -55 6 -55 -16 -42 -20 13 -24 11 -41 -11 -11
-14 -20 -32 -20 -41 0 -8 -12 -26 -26 -40 -14 -13 -35 -41 -45 -62 -11 -20
-24 -37 -29 -37 -14 0 -120 -81 -120 -92 0 -19 -46 -70 -77 -85 -18 -8 -33
-21 -33 -27 0 -17 -43 -56 -61 -56 -9 0 -25 -11 -37 -25 -12 -14 -25 -25 -30
-25 -4 0 -16 -15 -26 -32 -11 -18 -34 -46 -53 -61 -18 -16 -33 -33 -33 -39 0
-6 -26 -36 -57 -67 -32 -31 -66 -71 -76 -89 -19 -37 -31 -52 -62 -83 -17 -17
-28 -19 -90 -13 -71 6 -145 -12 -145 -36 0 -7 223 -10 631 -10 434 0 628 3
624 10 -4 6 -15 8 -25 5 -11 -3 -20 0 -24 10 -3 8 -13 15 -22 15 -10 0 -25 6
-33 14 -9 7 -29 18 -46 23 -29 10 -30 11 -30 76 0 50 4 71 17 84 22 22 79 19
133 -6 22 -10 64 -29 93 -42 35 -16 59 -35 73 -58 17 -29 24 -33 49 -27 30 6
30 5 14 -19 -20 -30 -22 -30 -48 -5 -12 10 -38 26 -59 35 -37 15 -38 15 -47
-7 -5 -13 -9 -16 -9 -8 -1 11 -4 11 -13 2 -9 -9 -9 -15 0 -24 7 -7 12 -27 12
-45 l0 -33 205 0 205 0 0 4270 0 4270 -2286 0 c-1521 0 -2283 -3 -2279 -10 3
-5 13 -10 20 -10 28 0 51 -76 34 -113 -24 -53 -130 -87 -159 -52 -7 8 -19 15
-26 15 -10 0 -11 6 -3 27 5 14 7 46 3 70 -4 28 -2 48 6 58 11 13 -206 15
-1894 15 l-1906 0 0 -30z m2810 -109 c0 -5 9 -13 20 -16 51 -16 25 -115 -36
-141 -46 -19 -111 -17 -161 6 l-43 19 -14 -28 c-26 -50 -153 -70 -197 -30
l-24 20 54 -5 c44 -4 51 -3 38 7 -14 10 -21 46 -18 84 1 6 10 15 21 18 28 9
14 28 -16 22 -28 -5 -31 1 -7 19 14 9 21 10 32 1 11 -9 15 -9 18 1 6 17 39 15
58 -4 11 -11 28 -15 58 -11 23 2 77 -1 119 -6 88 -12 108 -5 89 32 -8 14 -8
21 -1 21 5 0 10 -4 10 -9z m5315 -499 c6 -4 29 -28 53 -54 45 -51 54 -88 27
-119 -9 -9 -20 -48 -26 -85 -15 -103 -24 -118 -108 -180 l-76 -56 -75 5 c-109
6 -193 48 -237 119 -30 47 -32 57 -27 103 10 71 35 123 84 173 24 23 47 42 51
42 4 0 15 7 24 16 23 23 80 34 150 28 33 -3 78 -1 100 4 52 13 49 13 60 4z
m-1841 -123 c173 -64 191 -291 29 -360 -119 -51 -257 5 -298 120 -30 87 -7
174 59 219 68 46 128 52 210 21z m-929 -40 c155 -73 164 -269 17 -337 -69 -31
-137 -26 -197 16 -99 69 -119 221 -38 294 55 50 146 61 218 27z m-1745 -20
c67 -33 120 -110 120 -173 0 -40 -21 -96 -48 -127 -16 -20 -22 -34 -15 -36 6
-2 21 -13 33 -23 l23 -20 -27 -10 c-15 -5 -32 -9 -39 -7 -7 1 -11 -6 -10 -16
1 -16 -4 -18 -25 -12 -31 7 -42 8 -97 5 -50 -3 -78 -17 -71 -35 6 -17 -10 -30
-19 -15 -11 18 -21 11 -35 -25 -10 -26 -18 -34 -31 -30 -12 4 -23 -1 -30 -13
-7 -11 -18 -18 -26 -15 -10 4 -9 11 3 34 8 16 12 34 9 39 -3 6 3 10 13 10 25
0 48 25 31 35 -8 6 -7 10 2 16 12 8 11 11 -1 22 -8 7 -16 19 -18 27 -2 8 -14
26 -26 40 -32 35 -43 58 -51 111 -21 144 105 261 260 241 22 -2 56 -13 75 -23z
m868 2 c54 -28 97 -74 110 -119 17 -57 15 -83 -13 -137 -17 -34 -21 -53 -14
-61 13 -16 -10 -54 -32 -54 -12 0 -16 -6 -12 -20 5 -17 0 -20 -31 -20 -53 0
-177 20 -200 32 -35 19 -53 42 -85 108 -45 95 -40 162 17 224 60 64 183 87
260 47z m-1823 -89 c32 -17 57 -40 70 -64 19 -35 19 -38 1 -93 -17 -54 -17
-57 1 -82 33 -47 43 -68 43 -95 0 -37 -27 -105 -62 -152 -32 -46 -38 -82 -10
-71 54 23 95 27 135 15 80 -23 125 -92 112 -170 -6 -38 5 -55 20 -30 4 6 14 8
23 6 10 -4 30 5 46 19 26 22 46 32 46 21 0 -1 -12 -16 -27 -33 -16 -16 -34
-38 -41 -49 -12 -18 -12 -17 -6 5 4 17 2 22 -7 19 -8 -3 -15 -17 -17 -32 -2
-18 -11 -30 -23 -33 -24 -7 -44 -47 -48 -100 -3 -44 15 -61 21 -20 2 12 9 21
16 20 6 -2 12 5 12 14 0 9 3 13 7 10 4 -4 -4 -25 -16 -47 -12 -22 -20 -48 -17
-58 4 -13 -2 -21 -25 -29 l-31 -12 4 84 c4 91 4 92 -49 77 -21 -7 -21 -8 -6
-52 37 -108 -35 -257 -132 -276 -92 -17 -170 37 -200 140 -10 33 -24 60 -33
63 -67 23 -122 109 -122 189 0 52 10 76 52 120 l30 32 -30 21 c-17 11 -33 21
-37 21 -9 0 -55 56 -88 107 -36 57 -52 119 -43 166 9 47 65 112 110 127 32 10
33 12 32 65 0 45 5 62 30 97 63 89 163 113 259 60z m-695 -234 c34 -25 39 -61
18 -130 -11 -38 -10 -40 17 -62 55 -44 30 -155 -46 -200 -56 -33 -151 -9 -179
45 -7 13 -10 41 -7 68 5 36 0 60 -19 107 l-26 62 20 46 c27 59 70 86 140 86
39 0 61 -6 82 -22z m4865 -498 c-3 -5 2 -10 12 -10 22 0 66 -29 45 -30 -7 0
-10 -5 -7 -11 4 -5 -1 -19 -10 -29 -9 -10 -15 -22 -12 -27 7 -12 -11 -53 -23
-53 -5 0 -10 7 -10 16 0 10 -6 14 -15 10 -10 -3 -15 1 -15 12 0 9 -7 26 -15
36 -11 15 -17 16 -29 7 -11 -9 -15 -8 -20 5 -18 46 3 82 39 68 8 -4 15 -1 15
5 0 6 12 11 26 11 14 0 23 -4 19 -10z m-895 -1779 c0 -5 15 -19 34 -32 19 -13
33 -27 30 -30 -8 -13 23 -172 45 -231 18 -48 21 -80 21 -198 0 -134 1 -140 23
-154 12 -8 96 -42 186 -75 134 -49 171 -67 203 -98 l38 -37 0 33 c0 73 54 137
122 144 55 6 60 13 53 69 -9 61 -9 117 -1 125 3 4 13 -2 20 -13 14 -18 15 -18
33 -1 26 23 55 22 71 -3 17 -28 27 -25 42 10 7 17 16 30 21 30 21 0 54 -92 51
-140 -5 -83 -15 -132 -28 -137 -22 -8 -34 9 -47 67 l-12 53 -32 -31 c-17 -18
-36 -32 -42 -32 -6 0 -8 -13 -4 -32 22 -132 10 -196 -45 -230 -20 -12 -53 -25
-73 -28 l-38 -5 43 -70 c220 -357 302 -530 342 -719 8 -39 25 -104 38 -146 13
-41 34 -109 47 -150 28 -94 46 -130 64 -130 19 0 31 -25 39 -81 4 -26 20 -67
35 -91 16 -25 32 -55 36 -68 7 -20 5 -22 -16 -16 -84 24 -144 27 -221 10 -43
-9 -82 -14 -86 -10 -4 4 9 20 28 36 41 34 64 46 102 54 17 4 25 11 22 19 -5
15 22 44 32 34 8 -8 44 25 44 40 0 25 -52 35 -140 29 -47 -3 -95 -9 -107 -12
-14 -4 -23 -2 -23 5 0 6 10 11 23 11 13 0 27 3 31 8 4 4 28 14 54 23 48 16 68
39 33 39 -28 0 -29 5 -36 102 -7 126 -13 131 -46 48 -16 -39 -29 -78 -29 -86
0 -8 -4 -14 -8 -14 -4 0 -2 48 4 107 7 59 10 130 8 157 -5 58 -65 190 -90 200
-9 4 -14 9 -11 13 11 10 -26 32 -55 33 -17 0 -29 6 -29 15 -1 8 -2 21 -3 28
-1 6 -10 17 -21 22 -11 6 -25 26 -31 44 -7 22 -24 42 -47 55 -32 19 -37 19
-63 6 -15 -8 -61 -45 -102 -82 -41 -38 -78 -68 -83 -68 -5 0 11 27 36 61 25
34 45 65 45 70 0 5 10 19 21 30 16 16 18 23 9 29 -7 4 -10 12 -7 18 4 5 -2 17
-12 26 -18 16 -20 16 -39 -8 -30 -39 -42 -33 -37 20 4 40 2 47 -16 51 -17 5
-20 11 -15 32 4 14 9 53 12 86 l7 60 -36 -40 c-20 -22 -36 -43 -37 -47 0 -4
-21 -31 -46 -59 -26 -29 -62 -76 -81 -106 -63 -98 -57 -52 12 88 30 61 46 107
49 144 2 30 17 81 32 115 56 126 -19 62 -83 -70 -70 -146 -109 -208 -124 -193
-8 8 12 108 37 182 11 32 12 47 4 55 -16 16 -47 -26 -106 -142 -27 -56 -50
-90 -52 -80 -3 16 31 138 45 161 9 14 11 59 4 72 -3 5 -5 33 -6 62 0 28 -4 55
-8 60 -20 19 -97 -118 -138 -247 -17 -52 -33 -97 -36 -100 -9 -10 7 93 26 159
28 97 29 107 19 125 -12 21 -30 20 -49 -1 -26 -29 -58 -53 -70 -53 -8 0 -10
27 -5 93 l6 92 -25 -30 c-42 -48 -113 -215 -146 -340 -11 -41 -16 -54 -14 -30
22 174 34 350 26 358 -17 17 -38 0 -62 -50 -12 -26 -26 -50 -29 -53 -4 -3 -11
-18 -17 -34 -13 -41 -33 -45 -33 -7 0 16 -5 33 -11 37 -6 4 -9 32 -8 73 2 36
0 72 -4 79 -14 21 -37 13 -50 -15 -13 -31 -25 -43 -46 -43 -9 0 -11 7 -6 23
26 84 27 121 5 191 -12 39 -31 89 -42 112 -23 44 -19 77 9 73 10 -1 26 1 36 6
18 8 153 -17 329 -61 143 -36 132 -43 125 89 -6 108 0 146 20 134 11 -7 24
121 23 225 -1 91 9 108 65 108 25 0 45 -4 45 -9z m-3410 -2708 c25 -10 53 -23
63 -29 45 -26 173 -501 164 -611 -2 -37 -12 -43 -22 -14 -4 12 -12 17 -24 14
-13 -3 -34 10 -66 41 -25 25 -52 46 -60 46 -7 0 -17 9 -20 20 -3 11 -15 20
-26 20 -13 0 -19 7 -19 22 0 35 -38 68 -78 68 -26 0 -32 3 -25 13 21 26 23 48
5 46 -35 -3 -43 1 -40 23 3 19 -1 22 -29 22 -22 -1 -30 3 -26 12 3 8 -6 19
-21 26 -15 6 -25 17 -22 25 3 7 -4 19 -15 27 -20 13 -20 14 3 20 13 3 32 13
42 21 16 12 17 17 6 30 -12 14 -11 18 1 26 12 8 12 10 -1 19 -8 5 -23 10 -32
10 -11 0 -15 5 -12 15 4 8 1 15 -5 15 -8 0 -41 60 -41 76 0 4 56 9 160 12 73
2 106 -2 140 -15z m-204 -599 c13 -3 21 -10 18 -15 -6 -11 24 -24 34 -15 3 4
0 11 -8 16 -12 8 -10 10 8 10 13 0 21 -4 17 -9 -3 -5 -1 -12 4 -15 5 -3 11 3
14 14 7 26 47 27 47 1 0 -10 7 -21 15 -25 8 -3 15 -14 15 -25 0 -11 8 -22 18
-25 10 -4 23 -21 30 -39 7 -18 21 -43 32 -54 11 -12 29 -40 41 -62 12 -23 25
-43 29 -46 5 -3 11 -19 15 -35 4 -16 12 -33 19 -37 10 -6 36 -75 36 -95 0 -2
-15 -2 -34 0 -26 3 -37 -1 -50 -19 -9 -13 -16 -33 -16 -45 0 -36 -60 -146 -77
-140 -8 3 -19 6 -23 6 -5 0 -17 14 -27 30 -11 20 -25 30 -40 30 -15 0 -27 8
-32 24 -10 25 -87 96 -105 96 -6 0 -24 11 -40 25 -16 14 -33 25 -38 25 -4 0
-8 7 -8 15 0 9 -7 18 -15 21 -18 7 -41 55 -49 104 -13 72 -13 141 -1 148 7 4
15 21 18 39 5 25 3 31 -7 27 -8 -3 -17 0 -22 7 -4 7 -2 15 4 17 7 2 12 10 12
17 0 15 38 31 48 20 4 -3 0 -10 -8 -15 -8 -5 -11 -13 -6 -17 4 -4 18 4 30 20
12 15 25 27 30 27 4 0 15 8 24 17 16 15 17 15 20 0 2 -9 14 -20 28 -23z m-656
-1319 c17 -9 30 -19 30 -23 0 -13 -92 -42 -150 -48 -30 -2 -80 -7 -110 -10
-87 -8 -280 -5 -297 5 -20 11 77 22 192 22 44 0 104 0 133 0 46 0 69 11 42 21
-5 2 -7 13 -4 26 6 20 12 22 71 22 38 0 76 -6 93 -15z"/>
<path d="M0 3245 c0 -346 4 -545 10 -545 5 0 30 14 55 32 32 23 45 39 45 56 0
20 3 22 14 13 19 -16 27 -1 32 55 4 51 -10 59 -21 12 -8 -31 -9 -31 -12 -8 -2
14 -7 107 -11 207 -5 101 -12 186 -16 190 -4 4 -11 1 -16 -7 -12 -20 -18 -11
-35 52 -18 72 -21 157 -7 238 16 93 15 185 -3 220 -9 17 -20 30 -25 30 -6 0
-10 -198 -10 -545z"/>
<path d="M896 3615 c-8 -21 -8 -116 1 -277 5 -112 8 -128 23 -128 43 0 52 61
31 200 -7 41 -15 103 -19 137 -8 66 -24 97 -36 68z"/>
<path d="M330 3553 c0 -16 -4 -33 -9 -38 -5 -6 -19 -57 -31 -115 -12 -58 -26
-123 -31 -145 -6 -22 -10 -49 -11 -60 0 -11 -2 -14 -5 -7 -8 21 -25 13 -21
-10 2 -13 9 -22 16 -20 14 2 16 -34 2 -43 -6 -4 -4 -14 4 -28 12 -18 23 -103
26 -191 0 -16 5 -18 46 -12 34 4 55 15 78 38 18 18 49 47 69 65 30 25 37 38
37 67 0 20 5 36 10 36 6 0 10 -13 10 -28 0 -39 10 -46 28 -21 19 27 21 254 2
289 -12 23 -13 23 -27 4 -12 -16 -15 -17 -23 -4 -5 8 -13 31 -16 50 -6 34 -46
79 -71 80 -18 0 -51 52 -55 85 -4 39 -28 46 -28 8z"/>
<path d="M520 1621 c-36 -21 -123 -49 -136 -44 -8 3 -20 0 -28 -6 -7 -6 -24
-10 -37 -9 -21 3 -24 -1 -21 -26 5 -49 49 -76 85 -51 27 19 86 20 93 1 3 -8 0
-24 -6 -35 -8 -17 -8 -25 3 -35 12 -12 20 -12 53 3 21 10 45 25 52 34 7 8 37
23 67 32 75 24 84 64 16 65 -24 0 -24 1 -5 14 19 14 19 15 -4 36 -24 23 -106
36 -132 21z"/>
<path d="M363 1386 c-23 -6 -48 -17 -55 -24 -6 -6 -25 -12 -40 -12 -16 0 -28
-5 -28 -12 0 -21 -69 -87 -98 -95 -15 -3 -46 -17 -69 -30 -23 -12 -49 -23 -57
-23 -12 0 -16 -10 -16 -40 0 -36 3 -40 24 -40 14 0 28 5 32 11 6 11 27 11 514
-7 58 -2 157 -7 222 -13 70 -5 134 -5 160 0 66 14 162 27 170 23 4 -3 9 0 13
6 3 5 17 10 30 10 13 0 28 6 32 14 4 7 32 16 62 19 66 8 85 22 56 42 -11 8
-25 18 -31 23 -10 9 -97 22 -88 13 2 -2 -12 -15 -32 -29 -43 -29 -66 -25 -119
23 -22 19 -49 35 -60 35 -23 -1 -58 -24 -49 -33 4 -3 -9 -15 -27 -26 -27 -17
-44 -20 -80 -15 -45 6 -46 5 -63 -30 -19 -39 -30 -44 -52 -21 -14 13 -14 15 0
15 10 0 13 6 9 18 -6 14 -4 15 9 4 14 -11 17 -10 23 10 4 13 12 29 18 36 6 8
11 26 12 40 0 26 2 27 55 27 30 -1 80 -3 110 -5 42 -3 55 -1 55 10 0 10 -16
14 -59 14 -34 1 -61 6 -63 12 -2 6 -15 9 -28 6 -20 -3 -25 0 -25 17 0 17 -4
19 -22 12 -13 -4 -44 -11 -70 -15 -26 -4 -54 -13 -61 -20 -7 -7 -29 -19 -50
-27 -20 -7 -49 -25 -63 -40 -22 -23 -24 -30 -14 -49 19 -35 -10 -69 -59 -68
-21 0 -44 -2 -49 -6 -18 -11 -69 15 -81 40 -15 35 -14 86 4 110 8 10 15 29 15
41 0 12 9 27 20 33 11 6 20 15 20 20 0 11 0 11 -57 -4z"/>
<path d="M0 770 c0 -120 0 -120 23 -116 12 3 47 8 77 11 30 3 74 9 97 14 23 4
74 7 113 5 61 -2 70 0 59 12 -9 11 -8 14 9 14 11 0 22 8 25 20 3 11 14 20 25
20 20 0 52 29 52 47 0 6 -15 15 -32 18 -18 4 -39 12 -46 18 -7 6 -37 9 -67 8
-37 -1 -62 3 -79 15 -21 13 -39 15 -95 9 -39 -4 -77 -3 -87 3 -11 5 -31 12
-46 16 l-28 6 0 -120z"/>
</g>
</svg>
